<svg version="1.1" xmlns="http://www.w3.org/2000/svg" style="display: block;" viewBox="0 0 1136 1024" width="284" height="256" preserveAspectRatio="none">
<path transform="translate(0,0)" fill="rgb(249,249,249)" d="M 0 0 L 549.302 0 L 603.802 0 L 1136 0 L 1136 1024 L 599.804 1024 L 557.34 1024 L 0 1024 L 0 0 z"/>
<path transform="translate(0,0)" fill="rgb(62,65,254)" d="M 581.104 545.294 C 608.229 537.501 633.877 520.404 657.447 505.865 L 704.971 477.086 L 867.605 378.14 C 906.264 354.651 934.193 329.009 982.425 332.413 C 1044.3 336.781 1083.92 388.237 1086.32 447.988 C 1087.25 471.167 1087.08 496.056 1087.06 520.244 L 1087.02 619.873 L 1087.04 685.494 C 1087.12 722.391 1089.23 742.858 1070.43 776.636 C 1055.21 803.985 1031.75 821.663 1001.51 831.645 C 974.422 838.732 939.096 833.973 908.898 841.646 C 861.152 853.778 826.069 872.157 786.671 901.64 C 772.643 912.138 749.096 929.408 733.909 937.861 C 737.834 853.253 775.715 786.71 849.618 745.4 C 891.128 722.197 924.031 719.306 970.591 720 C 969.47 702.835 970.041 680.461 970.05 663.002 C 970.006 630.929 970.135 598.856 970.436 566.785 C 919.568 587.081 867.279 611.382 817.114 633.99 L 699.094 686.057 C 691.267 705.861 671.918 727.902 668.669 750.36 C 666.018 768.683 666.843 791.516 666.858 810.41 L 666.939 904.614 C 666.95 925.186 668.52 949.267 661.671 968.472 C 653.521 991.326 634.479 1010.09 612.262 1019.44 C 608.743 1020.92 602.562 1022.68 599.804 1024 L 557.34 1024 L 556.703 1023.65 C 553.435 1021.89 549.825 1020.32 546.396 1018.92 C 525.048 1010.23 505.858 992.605 499.126 970.07 C 493.497 951.231 493.976 929.257 493.961 909.505 L 494.052 827.522 C 494.073 803.918 495.35 771.019 489.639 748.564 C 485.751 733.274 459.46 677.618 445.081 671.874 C 412.264 658.764 377.969 645.915 345.07 632.854 L 247.449 593.518 C 227.779 585.642 203.33 577.937 184.953 568.518 C 186.959 590.695 185.498 626.437 185.547 649.802 C 185.589 669.252 186.596 701.31 185.399 719.953 C 232.492 720.25 267.693 719.16 309.691 743.711 C 332.869 757.259 342.125 764.315 361.646 783.916 C 386.401 808.773 405.934 845.236 414.331 879.148 C 417.358 891.371 418.323 913.1 418.916 925.818 C 384.359 909.22 350.674 875.721 311.594 862.134 C 284.425 852.689 265.14 843.825 235.676 839.163 C 211.419 835.325 185.741 837.118 163.169 833.904 C 125.084 828.48 86.084 794.786 74.7136 757.824 C 70.5197 744.191 68.2282 737.663 67.5973 722.715 C 66.7745 703.223 67.0876 683.468 67.0887 663.944 L 67.0989 559.898 L 67.0985 480.285 C 67.0792 467.274 65.7796 450.717 67.4182 437.947 C 73.5338 390.288 99.8027 357.74 144.706 341.696 C 197.299 322.904 234.669 351.897 279.482 376.89 L 367.412 425.779 C 410.945 449.275 454.226 473.236 497.246 497.657 C 526.634 514.053 552.318 527.71 581.104 545.294 z"/>
<path transform="translate(0,0)" fill="rgb(62,65,254)" d="M 549.302 0 L 603.802 0 C 607.577 3.2305 627.772 9.31455 633.222 11.0028 C 729.615 40.8663 779.492 140.423 753.766 236.983 C 732.312 317.51 658.457 370.004 575.957 371.168 C 560.287 371.39 542.716 367.254 527.432 364.032 C 434.193 340.754 371.908 236.456 396.968 143.601 C 411.323 88.5885 447.248 42.1117 499.672 18.9 C 512.665 13.147 539.101 6.42475 549.302 0 z"/>
</svg>